<svg width="394" height="558" viewBox="0 0 394 558" fill="none" xmlns="http://www.w3.org/2000/svg">
<path d="M93.3446 211.971V211.971C116.096 225.184 121.461 255.705 104.578 275.884L103.789 276.827" stroke="#C8DAD3" stroke-width="3"/>
<path d="M135.145 303.758L143.62 301.4C171.697 293.588 196.044 322.245 183.799 348.691V348.691" stroke="#C8DAD3" stroke-width="3"/>
<path d="M57.0588 256.368L51.3247 246.595C39.0241 225.632 59.6844 200.768 82.5461 209.021V209.021" stroke="#C8DAD3" stroke-width="3"/>
<path d="M172 404.147L168.368 403.549C124.422 396.308 102.066 346.615 125.799 308.927V308.927" stroke="#C8DAD3" stroke-width="3"/>
<path d="M225.548 176.064V176.064C240.1 104.354 319.694 65.5994 384.414 99.7377V99.7377" stroke="#C8DAD3" stroke-width="3"/>
<path d="M224.219 181.54L220.88 216.635C213.147 297.925 109.021 326.541 60.832 260.619V260.619" stroke="#C8DAD3" stroke-width="3"/>
<path d="M98.5194 286.109L94.6053 304.755C84.6255 352.297 137.646 387.774 177.785 360.413V360.413" stroke="#C8DAD3" stroke-width="3"/>
<path d="M191.436 408.922L191.147 410.394L191.147 410.394L191.436 408.922ZM311.595 539.348L313.086 539.18L311.595 539.348ZM312.344 555.493C312.991 556.01 313.935 555.903 314.452 555.256L322.871 544.703C323.388 544.055 323.282 543.111 322.634 542.595C321.986 542.078 321.043 542.184 320.526 542.832L313.042 552.212L303.662 544.728C303.014 544.212 302.07 544.318 301.554 544.966C301.037 545.613 301.143 546.557 301.791 547.074L312.344 555.493ZM181.711 408.541L191.147 410.394L191.725 407.45L182.289 405.598L181.711 408.541ZM310.105 539.515L311.789 554.488L314.77 554.153L313.086 539.18L310.105 539.515ZM191.147 410.394C254.721 422.877 302.864 475.134 310.105 539.515L313.086 539.18C305.699 473.498 256.583 420.186 191.725 407.45L191.147 410.394Z" fill="#C8DAD3"/>
</svg>
