<svg width="1011" height="626" viewBox="0 0 1011 626" fill="none" xmlns="http://www.w3.org/2000/svg">
<g clip-path="url(#clip0)">
<path d="M823.645 153.576L312.205 1.52588e-05L188.826 410.876L700.266 564.452L823.645 153.576Z" fill="#F1F1F1"/>
<path d="M245 625.338C380.31 625.338 490 613.697 490 599.338C490 584.978 380.31 573.338 245 573.338C109.69 573.338 0 584.978 0 599.338C0 613.697 109.69 625.338 245 625.338Z" fill="#3F3D56"/>
<path d="M267.742 68.5657H208.269V155.238H267.742V68.5657Z" fill="#2F2E41"/>
<path d="M219.763 108.547C219.763 108.547 222 151.338 202.214 153.092C188.371 154.32 229.212 192.238 229.212 192.238L264.308 143.643C264.308 143.643 238 146.338 254.859 116.646L219.763 108.547Z" fill="#FFB8B8"/>
<path opacity="0.1" d="M264.31 143.648L253.22 159.008L229.21 192.238C229.21 192.238 209.16 173.618 201.92 162.058C199.2 157.708 198.28 154.358 200.92 153.368C200.932 153.36 200.946 153.356 200.96 153.358C201.339 153.216 201.736 153.128 202.14 153.098C202.163 153.092 202.186 153.089 202.21 153.088C203.363 152.991 204.497 152.735 205.58 152.328C221.74 146.288 219.76 108.548 219.76 108.548L254.86 116.648C243.61 136.458 251.58 141.858 258.13 143.248C259.568 143.547 261.032 143.702 262.5 143.708C263.61 143.718 264.31 143.648 264.31 143.648Z" fill="black"/>
<path d="M274.627 73.4026C268.201 92.4277 258.348 109.762 238.267 109.762C218.186 109.762 203.038 93.4517 201.907 73.4026C200.461 47.7839 217.722 36.9366 238.267 37.0428C262.536 37.1681 282.252 50.8244 274.627 73.4026Z" fill="#2F2E41"/>
<path d="M188.716 382.569L198.165 448.712C198.165 448.712 190.065 489.208 194.115 517.555L198.165 547.252H217.063L222.462 516.206C222.462 516.206 227.862 483.809 227.862 468.96C227.862 468.96 242.71 401.467 233.261 387.969L188.716 382.569Z" fill="#FFB8B8"/>
<path d="M303.454 378.519L294.005 448.712C294.005 448.712 302.104 489.208 298.055 517.555L294.005 547.252H275.107L269.707 516.206C269.707 516.206 264.308 483.809 264.308 468.96C264.308 468.96 249.459 397.418 258.909 383.919L303.454 378.519Z" fill="#FFB8B8"/>
<path d="M284.556 543.203C284.556 543.203 295.355 539.153 296.705 544.553C298.055 549.952 300.754 578.299 300.754 578.299C300.754 578.299 308.853 590.448 314.253 591.798C319.652 593.148 331.801 610.696 316.953 612.046C302.104 613.396 287.256 607.996 287.256 605.296C287.256 602.597 281.856 601.247 279.156 601.247C276.457 601.247 267.008 597.197 268.358 593.148C269.707 589.098 273.757 541.853 273.757 541.853L284.556 543.203Z" fill="#2F2E41"/>
<path d="M207.614 543.203C207.614 543.203 196.815 539.153 195.465 544.553C194.115 549.952 191.415 578.299 191.415 578.299C191.415 578.299 183.316 590.448 177.917 591.798C172.517 593.148 160.369 610.696 175.217 612.046C190.065 613.396 204.914 607.996 204.914 605.296C204.914 602.597 210.313 601.247 213.013 601.247C215.713 601.247 225.162 597.197 223.812 593.148C222.462 589.098 218.413 541.853 218.413 541.853L207.614 543.203Z" fill="#2F2E41"/>
<path d="M240.01 124.388C255.469 124.388 268 111.856 268 96.3981C268 80.9399 255.469 68.4085 240.01 68.4085C224.552 68.4085 212.021 80.9399 212.021 96.3981C212.021 111.856 224.552 124.388 240.01 124.388Z" fill="#FFB8B8"/>
<path d="M345.3 250.278C345.3 250.278 288.61 274.578 283.21 248.928C279.89 232.898 277.635 216.666 276.46 200.338C276.455 200.332 276.448 200.329 276.44 200.328C275.65 199.848 247.72 182.708 253.22 159.008C254.5 153.874 256.905 149.089 260.26 144.998C260.26 144.998 261.09 144.458 262.5 143.708C264.153 142.825 265.86 142.047 267.61 141.378C277.14 137.748 292.99 135.698 296.7 159.838C302.1 194.938 302.1 232.738 302.1 232.738C302.1 232.738 318.3 242.188 339.9 232.738C361.5 223.288 383.1 228.688 384.45 240.838C385.8 252.978 345.3 250.278 345.3 250.278Z" fill="#FFB8B8"/>
<path d="M202.21 153.088L201.92 162.058L198.7 263.178L198.16 279.978L150.92 332.628C150.92 332.628 141.47 360.968 121.22 365.018C100.97 369.068 134.72 325.878 134.72 325.878L180.62 258.378L180.69 256.108C181.207 237.195 179.631 218.284 175.99 199.718C174.643 192.807 174.383 185.728 175.22 178.738C177.1 163.678 189.49 157.148 196.81 154.578C198.155 154.095 199.528 153.691 200.92 153.368C200.932 153.36 200.946 153.356 200.96 153.358C201.57 153.208 201.98 153.128 202.14 153.098C202.163 153.092 202.186 153.089 202.21 153.088Z" fill="#FFB8B8"/>
<path d="M277.81 250.278V255.678C258.13 279.728 214.57 268.368 198.7 263.178C194.97 261.958 192.77 261.078 192.77 261.078C193.578 259.386 194.037 257.55 194.12 255.678V243.538C194.12 239.488 195.46 242.188 196.81 240.838C198.16 239.488 192.77 231.388 192.77 231.388C179.27 223.288 187.37 200.338 187.37 200.338L196.81 180.088V154.578C198.155 154.095 199.528 153.691 200.92 153.368C200.932 153.36 200.946 153.356 200.96 153.358C201.339 153.216 201.736 153.128 202.14 153.098C202.163 153.092 202.186 153.089 202.21 153.088C203.363 152.991 204.497 152.735 205.58 152.328C208.11 157.548 213.61 164.418 225.16 165.238C238.99 166.228 252.1 151.318 258.13 143.248C259.567 143.547 261.032 143.702 262.5 143.708C264.153 142.825 265.86 142.047 267.61 141.378L261.61 166.588C256.3 179.858 275.77 199.638 276.44 200.328C276.448 200.329 276.455 200.332 276.46 200.338V215.188L275.11 231.388L273.76 235.438L276.46 239.488L275.11 243.538L276.46 246.238C277.81 248.928 277.81 247.588 277.81 250.278Z" fill="#D0CDE1"/>
<path d="M195.465 259.732L191.415 258.382C191.415 258.382 142.82 379.869 175.217 385.269C207.614 390.668 231.911 400.117 237.311 390.668C242.71 381.219 240.01 347.473 240.01 347.473L245.41 346.123C245.41 346.123 235.961 396.068 254.859 392.018C273.757 387.969 326.402 381.219 326.402 375.82C326.402 370.42 277.807 253.806 277.807 253.806C277.807 253.806 257.559 266.481 195.465 259.732Z" fill="#2F2E41"/>
<path d="M238.267 44.6975C246.193 44.6975 252.619 38.2716 252.619 30.3449C252.619 22.4182 246.193 15.9923 238.267 15.9923C230.34 15.9923 223.914 22.4182 223.914 30.3449C223.914 38.2716 230.34 44.6975 238.267 44.6975Z" fill="#2F2E41"/>
<path d="M221.044 22.6902C221.044 19.1323 222.366 15.7013 224.752 13.0627C227.139 10.4241 230.421 8.76602 233.961 8.4101C233.489 8.3632 233.01 8.33762 232.526 8.33762C228.719 8.33762 225.068 9.84977 222.377 12.5414C219.685 15.233 218.173 18.8836 218.173 22.6902C218.173 26.4967 219.685 30.1474 222.377 32.839C225.068 35.5306 228.719 37.0428 232.526 37.0428C233.01 37.0428 233.489 37.0172 233.961 36.9703C230.421 36.6144 227.139 34.9563 224.752 32.3177C222.366 29.6791 221.044 26.2481 221.044 22.6902Z" fill="#2F2E41"/>
<path d="M226.709 60.3572C226.709 60.3572 226.41 58.6889 214.689 63.0843C202.967 67.4797 195.942 99.9157 201.802 118.962C204.164 126.638 202.243 132.172 199.107 136.044C187.34 150.575 191.972 172.4 209.112 179.872C209.596 180.083 210.089 180.292 210.593 180.498L217.918 184.893C217.918 184.893 208.58 172.605 213.253 156.887C217.312 143.495 217.813 129.276 214.708 115.631C214.171 113.329 213.562 110.957 212.871 108.535C207.01 88.0235 209.86 90.3923 230.372 69.8805C230.372 69.8805 242.093 78.6713 252.349 83.0667C262.605 87.4621 271.396 91.8575 264.07 106.509C256.744 121.16 239.163 134.346 250.884 153.393C262.605 172.439 264.07 165.114 262.605 172.439L261.14 179.765L269.93 170.974L264.07 182.695C264.07 182.695 283.117 182.695 288.977 168.044L291.907 170.974C291.907 170.974 303.628 150.463 281.652 131.416C281.652 131.416 274.326 127.02 284.582 112.369C294.838 97.7179 286.961 66.2176 273.775 60.3572C260.589 54.4967 226.709 60.3572 226.709 60.3572Z" fill="#2F2E41"/>
<path d="M378.936 288.314L418.351 275.966C416.17 259.574 411.19 243.678 403.629 228.971L364.214 241.319C373.463 255.278 378.568 271.572 378.936 288.314Z" fill="#C8DAD3"/>
<path d="M1011 3.33763H457V229.338H1011V3.33763Z" fill="#3F3D56"/>
<path d="M536.621 87.4721H495.317C492.499 71.1775 492.499 54.52 495.317 38.2254H536.621C531.968 54.3112 531.968 71.3863 536.621 87.4721Z" fill="#FF6584"/>
<path d="M572.379 108.45H613.683C616.501 92.1553 616.501 75.4977 613.683 59.2031H572.379C577.032 75.2889 577.032 92.364 572.379 108.45Z" fill="#C8DAD3"/>
<path d="M664.214 36.2025C670.998 70.3837 672.929 105.351 669.951 140.071C669.168 149.111 668.049 158.113 666.596 167.078C665.933 171.153 665.177 175.209 664.401 179.264C663.957 181.587 663.024 184.48 664.485 186.667C667.331 190.927 677.082 189.815 681.38 189.954C690.319 190.244 699.272 190.292 708.215 190.448L735.12 190.918L748.074 191.144C752.488 191.221 757.322 191.905 761.701 191.341C767.464 190.598 766.06 184.562 765.973 180.078C765.8 171.213 765.564 162.35 765.264 153.489C764.075 118.372 761.886 83.3074 758.697 48.2962C758.291 43.8296 758.545 38.4857 757.342 34.1669C756.855 32.4209 756.371 31.9161 754.475 31.6025C750.131 30.884 744.955 31.6406 740.561 31.6711L725.866 31.7734L666.107 32.1893C665.718 32.2027 665.35 32.3667 665.079 32.6465C664.809 32.9263 664.658 33.3002 664.658 33.6893C664.658 34.0783 664.809 34.4522 665.079 34.732C665.35 35.0119 665.718 35.1758 666.107 35.1893L715.089 34.8484L736.642 34.6984L748.398 34.6166C750.814 34.5998 753.072 33.8682 754.587 36.5266C755.546 38.2087 755.153 42.415 755.336 44.3722C758.263 75.761 760.386 107.211 761.705 138.722C762.035 146.596 762.314 154.473 762.543 162.351C762.638 165.633 762.725 168.916 762.803 172.199C762.849 174.168 762.893 176.138 762.933 178.108C762.975 180.14 763.816 184.122 763.078 185.988C761.505 189.968 754.493 188.256 751.063 188.196L739.106 187.987L715.191 187.57L691.275 187.153C687.321 187.084 683.362 187.053 679.411 186.885C678.1 186.829 676.787 186.766 675.478 186.673C671.58 186.395 667.383 187.317 666.92 181.929C666.634 178.605 668.452 174.02 669.02 170.694C669.661 166.938 670.244 163.173 670.768 159.399C671.747 152.347 672.528 145.272 673.11 138.173C675.856 103.804 673.836 69.2202 667.107 35.4049C666.733 33.5127 663.84 34.3137 664.214 36.2024V36.2025Z" fill="#F1F1F1"/>
<path d="M861.214 36.2025C867.998 70.3837 869.929 105.351 866.951 140.071C866.168 149.111 865.049 158.113 863.596 167.078C862.933 171.153 862.177 175.209 861.401 179.264C860.957 181.587 860.024 184.48 861.485 186.667C864.331 190.927 874.082 189.815 878.38 189.954C887.319 190.244 896.272 190.292 905.215 190.448L932.12 190.918L945.074 191.144C949.488 191.221 954.322 191.905 958.701 191.341C964.464 190.598 963.06 184.562 962.973 180.078C962.8 171.213 962.564 162.35 962.264 153.489C961.075 118.372 958.886 83.3074 955.698 48.2962C955.291 43.8296 955.545 38.4857 954.341 34.1669C953.855 32.4209 953.371 31.9161 951.475 31.6025C947.131 30.884 941.955 31.6406 937.561 31.6711L922.866 31.7734L863.107 32.1893C862.718 32.2027 862.35 32.3667 862.079 32.6465C861.809 32.9263 861.658 33.3002 861.658 33.6893C861.658 34.0783 861.809 34.4522 862.079 34.732C862.35 35.0119 862.718 35.1758 863.107 35.1893L912.089 34.8484L933.642 34.6984L945.398 34.6166C947.814 34.5998 950.072 33.8682 951.587 36.5266C952.546 38.2087 952.153 42.415 952.336 44.3722C955.263 75.761 957.386 107.211 958.705 138.722C959.034 146.596 959.314 154.473 959.543 162.351C959.638 165.633 959.725 168.916 959.803 172.199C959.849 174.168 959.893 176.138 959.933 178.108C959.975 180.14 960.816 184.122 960.078 185.988C958.505 189.968 951.493 188.256 948.063 188.196L936.106 187.987L912.191 187.57L888.275 187.153C884.321 187.084 880.362 187.053 876.411 186.885C875.1 186.829 873.787 186.766 872.478 186.673C868.58 186.395 864.383 187.317 863.92 181.929C863.634 178.605 865.452 174.02 866.02 170.694C866.661 166.938 867.244 163.173 867.768 159.399C868.747 152.347 869.528 145.272 870.11 138.173C872.856 103.804 870.836 69.2202 864.107 35.4049C863.733 33.5127 860.84 34.3137 861.214 36.2024V36.2025Z" fill="#F1F1F1"/>
<path d="M678.008 43.9242H697.85C698.239 43.9108 698.608 43.7468 698.878 43.467C699.148 43.1872 699.299 42.8133 699.299 42.4242C699.299 42.0352 699.148 41.6613 698.878 41.3815C698.608 41.1016 698.239 40.9377 697.85 40.9242H678.008C677.619 40.9377 677.251 41.1016 676.98 41.3815C676.71 41.6613 676.559 42.0352 676.559 42.4242C676.559 42.8133 676.71 43.1872 676.98 43.467C677.251 43.7468 677.619 43.9108 678.008 43.9242Z" fill="#F1F1F1"/>
<path d="M678.007 50.6918L696.71 49.9848C698.634 49.9121 698.644 46.9117 696.71 46.9848L678.007 47.6918C676.082 47.7645 676.073 50.7649 678.007 50.6918Z" fill="#F1F1F1"/>
<path d="M678.008 56.3967H696.15C696.538 56.3832 696.907 56.2193 697.177 55.9394C697.447 55.6596 697.599 55.2857 697.599 54.8967C697.599 54.5076 697.447 54.1337 697.177 53.8539C696.907 53.5741 696.538 53.4102 696.15 53.3967H678.008C677.619 53.4102 677.251 53.5741 676.98 53.8539C676.71 54.1337 676.559 54.5076 676.559 54.8967C676.559 55.2857 676.71 55.6596 676.98 55.9394C677.251 56.2193 677.619 56.3832 678.008 56.3967Z" fill="#F1F1F1"/>
<path d="M738.127 42.5158C734.055 40.3911 730.359 43.885 729.786 47.8767C729.505 49.8285 729.445 52.4962 730.688 54.1542C731.958 55.8475 734.401 56.5574 736.429 56.6826C740.301 56.9216 744.422 54.7614 745.374 50.7958C745.823 49.0353 745.604 47.1708 744.76 45.5622C743.915 43.9536 742.505 42.7148 740.8 42.0848C738.972 41.4514 738.187 44.3484 740.003 44.9777C740.845 45.3276 741.55 45.9415 742.013 46.727C742.476 47.5124 742.671 48.4269 742.57 49.333C742.45 50.375 741.994 51.3496 741.271 52.1086C740.547 52.8677 739.595 53.3698 738.56 53.5385C736.084 54.1081 733.182 53.4968 732.704 50.7036C732.345 48.614 733.48 43.4717 736.613 45.1062C738.322 45.9984 739.841 43.4102 738.127 42.5158V42.5158Z" fill="#F1F1F1"/>
<path d="M875.008 43.9242H894.85C895.239 43.9108 895.608 43.7468 895.878 43.467C896.148 43.1872 896.299 42.8133 896.299 42.4242C896.299 42.0352 896.148 41.6613 895.878 41.3815C895.608 41.1016 895.239 40.9377 894.85 40.9242H875.008C874.619 40.9377 874.251 41.1016 873.98 41.3815C873.71 41.6613 873.559 42.0352 873.559 42.4242C873.559 42.8133 873.71 43.1872 873.98 43.467C874.251 43.7468 874.619 43.9108 875.008 43.9242Z" fill="#F1F1F1"/>
<path d="M875.007 50.6918L893.71 49.9848C895.634 49.9121 895.644 46.9117 893.71 46.9848L875.007 47.6918C873.082 47.7645 873.073 50.7649 875.007 50.6918Z" fill="#F1F1F1"/>
<path d="M875.008 56.3967H893.15C893.538 56.3832 893.907 56.2193 894.177 55.9394C894.447 55.6596 894.599 55.2857 894.599 54.8967C894.599 54.5076 894.447 54.1337 894.177 53.8539C893.907 53.5741 893.538 53.4102 893.15 53.3967H875.008C874.619 53.4102 874.251 53.5741 873.98 53.8539C873.71 54.1337 873.559 54.5076 873.559 54.8967C873.559 55.2857 873.71 55.6596 873.98 55.9394C874.251 56.2193 874.619 56.3832 875.008 56.3967Z" fill="#F1F1F1"/>
<path d="M935.127 42.5158C931.055 40.3911 927.359 43.885 926.786 47.8767C926.505 49.8285 926.445 52.4962 927.688 54.1542C928.958 55.8475 931.401 56.5574 933.429 56.6826C937.301 56.9216 941.422 54.7614 942.374 50.7958C942.823 49.0353 942.604 47.1708 941.76 45.5622C940.915 43.9536 939.505 42.7148 937.8 42.0848C935.972 41.4514 935.187 44.3484 937.003 44.9777C937.845 45.3276 938.55 45.9415 939.013 46.727C939.476 47.5124 939.671 48.4269 939.57 49.333C939.45 50.375 938.994 51.3496 938.271 52.1086C937.547 52.8677 936.595 53.3698 935.56 53.5385C933.084 54.1081 930.182 53.4968 929.704 50.7036C929.345 48.614 930.48 43.4717 933.613 45.1062C935.322 45.9984 936.841 43.4102 935.127 42.5158V42.5158Z" fill="#F1F1F1"/>
<path d="M681.976 72.8483C703.802 73.0778 725.605 72.404 747.386 70.8267L745.939 68.928C742.374 77.962 742.472 87.4836 742.945 97.0404C743.063 99.4348 743.814 102.664 743.329 105.035C742.718 108.018 740.04 107.305 737.378 107.391C731.513 107.58 725.647 107.717 719.779 107.8C714.238 107.878 708.697 107.909 703.155 107.892C700.547 107.884 697.939 107.865 695.331 107.837C692.269 107.802 688.788 108.692 687.997 105.145C687.491 102.872 688.001 99.884 688.002 97.5474L688.008 89.0005L688.019 71.9068C688.006 71.518 687.842 71.1496 687.562 70.8793C687.282 70.609 686.908 70.4579 686.519 70.4579C686.13 70.4579 685.756 70.609 685.477 70.8793C685.197 71.1496 685.033 71.518 685.019 71.9068L685.005 92.7991L684.999 102.296C684.998 104.182 684.606 106.461 685.31 108.252C686.93 112.371 693.931 110.825 697.287 110.856C704.132 110.919 710.978 110.909 717.824 110.825C724.669 110.742 731.513 110.587 738.355 110.359C741.303 110.261 745.382 110.931 746.276 107.296C746.903 104.747 746.172 101.424 746.038 98.8231C745.886 95.855 745.722 92.8863 745.682 89.9139C745.589 82.9731 746.269 76.2208 748.832 69.7255C748.892 69.5028 748.9 69.2694 748.856 69.0431C748.811 68.8169 748.716 68.6038 748.576 68.4204C748.436 68.237 748.256 68.0881 748.05 67.9851C747.844 67.8822 747.616 67.828 747.386 67.8267C725.616 69.4036 703.813 70.0775 681.976 69.8483C681.587 69.8618 681.219 70.0257 680.949 70.3055C680.678 70.5854 680.527 70.9592 680.527 71.3483C680.527 71.7374 680.678 72.1112 680.949 72.3911C681.219 72.6709 681.587 72.8348 681.976 72.8483L681.976 72.8483Z" fill="#F1F1F1"/>
<path d="M688.196 74.4785C697.539 77.7848 706.647 81.7182 715.46 86.2519C723.366 90.3379 733.717 94.8013 739.158 102.104C740.298 103.635 742.903 102.141 741.748 100.59C736.192 93.1326 726.626 88.7446 718.591 84.5061C709.047 79.4971 699.156 75.1793 688.994 71.5857C687.172 70.9368 686.388 73.8344 688.196 74.4785Z" fill="#F1F1F1"/>
<path d="M746.876 69.1359C736.962 73.3751 728.563 81.5429 719.704 87.5949C710.114 94.1457 700.239 100.242 690.079 105.884C688.393 106.826 689.904 109.418 691.593 108.475C701.732 102.813 711.607 96.7167 721.218 90.1853C730.076 84.1344 738.479 75.9645 748.39 71.7262C750.16 70.9694 748.633 68.3844 746.876 69.1358V69.1359Z" fill="#F1F1F1"/>
<path d="M878.976 72.8483C900.802 73.0778 922.605 72.404 944.386 70.8267L942.939 68.928C939.374 77.962 939.472 87.4836 939.945 97.0404C940.063 99.4348 940.814 102.664 940.329 105.035C939.718 108.018 937.04 107.305 934.378 107.391C928.513 107.58 922.647 107.717 916.779 107.8C911.238 107.878 905.697 107.909 900.155 107.892C897.547 107.884 894.939 107.865 892.331 107.837C889.269 107.802 885.788 108.692 884.997 105.145C884.491 102.872 885.001 99.884 885.002 97.5474L885.008 89.0005L885.019 71.9068C885.006 71.518 884.842 71.1496 884.562 70.8793C884.282 70.609 883.908 70.4579 883.519 70.4579C883.13 70.4579 882.756 70.609 882.477 70.8793C882.197 71.1496 882.033 71.518 882.019 71.9068L882.005 92.7991L881.999 102.296C881.998 104.182 881.606 106.461 882.31 108.252C883.93 112.371 890.931 110.825 894.287 110.856C901.132 110.919 907.978 110.909 914.824 110.825C921.669 110.742 928.513 110.587 935.355 110.359C938.303 110.261 942.382 110.931 943.276 107.296C943.903 104.747 943.172 101.424 943.038 98.8231C942.886 95.855 942.722 92.8863 942.682 89.9139C942.589 82.9731 943.269 76.2208 945.832 69.7255C945.892 69.5028 945.9 69.2694 945.856 69.0431C945.811 68.8169 945.716 68.6038 945.576 68.4204C945.436 68.237 945.256 68.0881 945.05 67.9851C944.844 67.8822 944.616 67.828 944.386 67.8267C922.616 69.4036 900.813 70.0775 878.976 69.8483C878.587 69.8618 878.219 70.0257 877.949 70.3055C877.678 70.5854 877.527 70.9592 877.527 71.3483C877.527 71.7374 877.678 72.1112 877.949 72.3911C878.219 72.6709 878.587 72.8348 878.976 72.8483L878.976 72.8483Z" fill="#F1F1F1"/>
<path d="M885.196 74.4785C894.539 77.7848 903.647 81.7182 912.46 86.2519C920.366 90.3379 930.717 94.8013 936.158 102.104C937.298 103.635 939.903 102.141 938.748 100.59C933.192 93.1326 923.626 88.7446 915.591 84.5061C906.047 79.4971 896.156 75.1793 885.994 71.5857C884.172 70.9368 883.388 73.8344 885.196 74.4785Z" fill="#F1F1F1"/>
<path d="M943.876 69.1359C933.962 73.3751 925.563 81.5429 916.704 87.5949C907.114 94.1457 897.239 100.242 887.079 105.884C885.393 106.826 886.904 109.418 888.593 108.475C898.732 102.813 908.607 96.7167 918.218 90.1853C927.076 84.1344 935.479 75.9645 945.39 71.7262C947.16 70.9694 945.633 68.3844 943.876 69.1358V69.1359Z" fill="#F1F1F1"/>
<path d="M878.976 132.848C900.802 133.078 922.605 132.404 944.386 130.827L942.939 128.928C939.374 137.962 939.472 147.484 939.945 157.04C940.063 159.435 940.814 162.664 940.329 165.035C939.718 168.018 937.04 167.305 934.378 167.391C928.513 167.58 922.647 167.717 916.779 167.8C911.238 167.878 905.697 167.909 900.155 167.892C897.547 167.884 894.939 167.865 892.331 167.837C889.269 167.802 885.788 168.692 884.997 165.145C884.491 162.872 885.001 159.884 885.002 157.547L885.008 149.001L885.019 131.907C885.006 131.518 884.842 131.15 884.562 130.879C884.282 130.609 883.908 130.458 883.519 130.458C883.13 130.458 882.756 130.609 882.477 130.879C882.197 131.15 882.033 131.518 882.019 131.907L882.005 152.799L881.999 162.296C881.998 164.182 881.606 166.461 882.31 168.252C883.93 172.371 890.931 170.825 894.287 170.856C901.132 170.919 907.978 170.909 914.824 170.825C921.669 170.742 928.513 170.587 935.355 170.359C938.303 170.261 942.382 170.931 943.276 167.296C943.903 164.747 943.172 161.424 943.038 158.823C942.886 155.855 942.722 152.886 942.682 149.914C942.589 142.973 943.269 136.221 945.832 129.726C945.892 129.503 945.9 129.269 945.856 129.043C945.811 128.817 945.716 128.604 945.576 128.42C945.436 128.237 945.256 128.088 945.05 127.985C944.844 127.882 944.616 127.828 944.386 127.827C922.616 129.404 900.813 130.078 878.976 129.848C878.587 129.862 878.219 130.026 877.949 130.306C877.678 130.585 877.527 130.959 877.527 131.348C877.527 131.737 877.678 132.111 877.949 132.391C878.219 132.671 878.587 132.835 878.976 132.848H878.976Z" fill="#F1F1F1"/>
<path d="M885.196 134.479C894.539 137.785 903.647 141.718 912.46 146.252C920.366 150.338 930.717 154.801 936.158 162.104C937.298 163.635 939.903 162.141 938.748 160.59C933.192 153.133 923.626 148.745 915.591 144.506C906.047 139.497 896.156 135.179 885.994 131.586C884.172 130.937 883.388 133.834 885.196 134.479Z" fill="#F1F1F1"/>
<path d="M943.876 129.136C933.962 133.375 925.563 141.543 916.704 147.595C907.114 154.146 897.239 160.242 887.079 165.884C885.393 166.826 886.904 169.418 888.593 168.475C898.732 162.813 908.607 156.717 918.218 150.185C927.076 144.134 935.479 135.964 945.39 131.726C947.16 130.969 945.633 128.384 943.876 129.136Z" fill="#F1F1F1"/>
<path d="M687.647 130.587C707.87 130.895 728.092 130.814 748.313 130.345C750.24 130.3 750.247 127.3 748.313 127.345C728.093 127.814 707.871 127.895 687.647 127.587C687.258 127.6 686.89 127.764 686.619 128.044C686.349 128.324 686.198 128.698 686.198 129.087C686.198 129.476 686.349 129.85 686.619 130.13C686.89 130.41 687.258 130.573 687.647 130.587Z" fill="#F1F1F1"/>
<path d="M689.348 144.188C710.137 144.52 730.926 144.431 751.714 143.921C753.641 143.873 753.649 140.873 751.714 140.921C730.928 141.431 710.14 141.52 689.348 141.188C687.417 141.158 687.416 144.158 689.348 144.188Z" fill="#F1F1F1"/>
<path d="M687.072 158.874L746.038 156.136C747.96 156.047 747.971 153.046 746.038 153.136L687.072 155.874C685.15 155.964 685.139 158.964 687.072 158.874Z" fill="#F1F1F1"/>
<path d="M778.921 116.491H835.047C835.436 116.478 835.805 116.314 836.075 116.034C836.345 115.754 836.496 115.38 836.496 114.991C836.496 114.602 836.345 114.228 836.075 113.948C835.805 113.669 835.436 113.505 835.047 113.491H778.921C778.532 113.505 778.164 113.669 777.894 113.948C777.623 114.228 777.472 114.602 777.472 114.991C777.472 115.38 777.623 115.754 777.894 116.034C778.164 116.314 778.532 116.478 778.921 116.491Z" fill="#F1F1F1"/>
<path d="M832.588 99.3396L841.357 107.344C842.36 108.259 845.119 110.149 845.742 111.346C847.03 113.82 845.646 113.256 843.438 114.113C838.014 116.272 833.015 119.376 828.675 123.281C827.223 124.56 829.352 126.675 830.796 125.402C834.754 121.844 839.302 119.003 844.236 117.006C846.005 116.306 849.361 115.896 850.202 113.789C851.23 111.21 847.954 109.307 846.402 107.89L834.71 97.2183C833.286 95.9189 831.159 98.0346 832.588 99.3396V99.3396Z" fill="#F1F1F1"/>
<path d="M696.379 216.45H737.683C740.501 200.155 740.501 183.498 737.683 167.203H696.379C701.032 183.289 701.032 200.364 696.379 216.45Z" fill="#C8DAD3"/>
<path d="M524.379 179.45H565.683C568.501 163.155 568.501 146.498 565.683 130.203H524.379C529.032 146.289 529.032 163.364 524.379 179.45Z" fill="#C8DAD3"/>
<path d="M785.379 71.4498H826.683C829.501 55.1553 829.501 38.4977 826.683 22.2031H785.379C790.032 38.2889 790.032 55.364 785.379 71.4498Z" fill="#C8DAD3"/>
</g>
<defs>
<clipPath id="clip0">
<rect width="1011" height="625.338" fill="white"/>
</clipPath>
</defs>
</svg>
