<svg width="726" height="538" viewBox="0 0 726 538" fill="none" xmlns="http://www.w3.org/2000/svg">
<path d="M127.262 0L89.3281 62.5734C99.5733 69.2891 106.817 79.7752 109.517 91.7995C112.217 103.824 110.16 116.437 103.784 126.954C97.4085 137.471 87.2173 145.061 75.3798 148.109C63.5423 151.157 50.9935 149.423 40.4043 143.274L0.0701904 209.806L389.186 450.066L516.378 240.26L127.262 0Z" fill="#F2F2F2"/>
<path d="M69.4618 133.085C86.3359 133.085 100.015 119.28 100.015 102.251C100.015 85.2216 86.3359 71.4165 69.4618 71.4165C52.5877 71.4165 38.9086 85.2216 38.9086 102.251C38.9086 119.28 52.5877 133.085 69.4618 133.085Z" fill="#F2F2F2"/>
<path d="M352.967 515.289C412.615 515.289 460.969 512.079 460.969 508.119C460.969 504.158 412.615 500.948 352.967 500.948C293.319 500.948 244.965 504.158 244.965 508.119C244.965 512.079 293.319 515.289 352.967 515.289Z" fill="#F2F2F2"/>
<path d="M170.358 538C198.22 538 220.807 536.5 220.807 534.65C220.807 532.801 198.22 531.301 170.358 531.301C142.497 531.301 119.91 532.801 119.91 534.65C119.91 536.5 142.497 538 170.358 538Z" fill="#F2F2F2"/>
<path d="M567.55 498.796C627.198 498.796 675.552 495.586 675.552 491.626C675.552 487.665 627.198 484.455 567.55 484.455C507.902 484.455 459.548 487.665 459.548 491.626C459.548 495.586 507.902 498.796 567.55 498.796Z" fill="#F2F2F2"/>
<path d="M4.80273 480.152H726" stroke="#2F2E41" stroke-width="2" stroke-miterlimit="10"/>
<path d="M648.906 126.273H130.213V479.794H648.906V126.273Z" fill="#3F3D56"/>
<path d="M130.213 152.13H648.906" stroke="#2F2E41" stroke-width="2" stroke-miterlimit="10"/>
<path d="M146.2 145.634C149.732 145.634 152.595 142.745 152.595 139.181C152.595 135.616 149.732 132.727 146.2 132.727C142.668 132.727 139.805 135.616 139.805 139.181C139.805 142.745 142.668 145.634 146.2 145.634Z" fill="#C8DAD3"/>
<path d="M165.385 145.993C168.916 145.993 171.779 143.103 171.779 139.539C171.779 135.975 168.916 133.085 165.385 133.085C161.853 133.085 158.99 135.975 158.99 139.539C158.99 143.103 161.853 145.993 165.385 145.993Z" fill="#C8DAD3"/>
<path d="M184.569 146.351C188.101 146.351 190.964 143.462 190.964 139.898C190.964 136.333 188.101 133.444 184.569 133.444C181.037 133.444 178.174 136.333 178.174 139.898C178.174 143.462 181.037 146.351 184.569 146.351Z" fill="#C8DAD3"/>
<path opacity="0.3" d="M600.235 176.11H162.542V262.16H600.235V176.11Z" fill="#C8DAD3"/>
<path opacity="0.3" d="M162.542 262.16L600.235 176.11" stroke="#C8DAD3" stroke-width="2" stroke-miterlimit="10"/>
<path opacity="0.3" d="M600.235 262.16L162.542 176.11" stroke="#C8DAD3" stroke-width="2" stroke-miterlimit="10"/>
<path opacity="0.3" d="M266.992 316.658H162.542V455.055H266.992V316.658Z" fill="#C8DAD3"/>
<path opacity="0.3" d="M600.235 316.658H495.785V455.055H600.235V316.658Z" fill="#C8DAD3"/>
<path opacity="0.3" d="M433.613 316.658H329.164V455.055H433.613V316.658Z" fill="#C8DAD3"/>
<path opacity="0.3" d="M162.542 316.658L266.992 455.055" stroke="#C8DAD3" stroke-width="2" stroke-miterlimit="10"/>
<path opacity="0.3" d="M266.992 316.658L162.542 455.055" stroke="#C8DAD3" stroke-width="2" stroke-miterlimit="10"/>
<path opacity="0.3" d="M329.519 316.658L433.968 455.055" stroke="#C8DAD3" stroke-width="2" stroke-miterlimit="10"/>
<path opacity="0.3" d="M433.968 316.658L329.519 455.055" stroke="#C8DAD3" stroke-width="2" stroke-miterlimit="10"/>
<path opacity="0.3" d="M495.785 316.658L600.235 455.055" stroke="#C8DAD3" stroke-width="2" stroke-miterlimit="10"/>
<path opacity="0.3" d="M600.235 316.658L495.785 455.055" stroke="#C8DAD3" stroke-width="2" stroke-miterlimit="10"/>
<path d="M658.499 176.11H220.807V262.16H658.499V176.11Z" fill="#C8DAD3"/>
<path d="M620.13 349.644H515.68V488.04H620.13V349.644Z" fill="#C8DAD3"/>
<path d="M604.853 367.929H530.957V376.534H604.853V367.929Z" fill="#3F3D56"/>
<path d="M604.853 386.573H530.957V395.178H604.853V386.573Z" fill="#3F3D56"/>
<path d="M604.853 405.217H530.957V413.822H604.853V405.217Z" fill="#3F3D56"/>
<path d="M604.853 423.862H530.957V432.467H604.853V423.862Z" fill="#3F3D56"/>
<path d="M604.853 442.506H530.957V451.111H604.853V442.506Z" fill="#3F3D56"/>
<path d="M604.853 461.15H530.957V469.755H604.853V461.15Z" fill="#3F3D56"/>
<path d="M292.571 335.302H188.122V473.699H292.571V335.302Z" fill="#C8DAD3"/>
<path d="M277.294 381.554H203.398V390.159H277.294V381.554Z" fill="#3F3D56"/>
<path d="M277.294 400.198H203.398V408.803H277.294V400.198Z" fill="#3F3D56"/>
<path d="M277.294 418.842H203.398V427.447H277.294V418.842Z" fill="#3F3D56"/>
<path d="M460.851 226.57C460.851 242.682 451.361 248.308 439.653 248.308C439.381 248.308 439.111 248.305 438.84 248.299C438.298 248.287 437.761 248.261 437.23 248.224C426.664 247.47 418.455 241.555 418.455 226.57C418.455 211.063 438.09 191.496 439.565 190.048L439.567 190.046C439.624 189.99 439.653 189.962 439.653 189.962C439.653 189.962 460.851 210.459 460.851 226.57Z" fill="#3F3D56"/>
<path d="M438.88 245.843L446.634 234.91L438.861 247.044L438.84 248.299C438.298 248.287 437.761 248.261 437.23 248.224L438.065 232.105L438.059 231.98L438.073 231.956L438.152 230.434L430.36 218.27L438.176 229.292L438.195 229.615L438.826 217.436L432.155 204.867L438.907 215.298L439.565 190.048L439.567 189.962V190.046L439.458 209.957L446.099 202.063L439.431 211.672L439.255 222.577L445.456 212.111L439.229 224.181L439.131 230.244L448.133 215.678L439.097 232.359L438.88 245.843Z" fill="#C8DAD3"/>
<path d="M58.4284 260.065C67.6239 260.065 75.0783 252.542 75.0783 243.262C75.0783 233.982 67.6239 226.459 58.4284 226.459C49.233 226.459 41.7786 233.982 41.7786 243.262C41.7786 252.542 49.233 260.065 58.4284 260.065Z" fill="#2F2E41"/>
<path d="M49.6622 254.448C49.6622 254.448 49.9128 264.82 48.9101 265.073C47.9075 265.326 62.697 269.374 62.697 269.374L64.201 255.207L49.6622 254.448Z" fill="#A0616A"/>
<path d="M166.474 342.99C166.474 342.99 177.504 342.99 177.754 341.726C178.005 340.461 180.261 352.098 180.261 352.098L175.749 353.615C175.749 353.615 167.226 349.821 166.474 349.821C165.722 349.821 166.474 342.99 166.474 342.99Z" fill="#A0616A"/>
<path d="M178.506 347.544C178.506 347.544 176.501 340.714 173.994 340.461C173.994 340.461 182.517 334.895 182.768 333.124C183.019 331.353 186.027 326.8 187.28 328.318C188.533 329.836 188.533 353.868 186.277 356.398C184.021 358.928 173.994 352.842 173.994 352.842C173.994 352.842 180.261 350.074 178.506 347.544Z" fill="#2F2E41"/>
<path d="M42.3929 444.434L40.3878 455.312L49.6624 456.83V444.434H42.3929Z" fill="#A0616A"/>
<path d="M42.3928 454.048C42.3928 454.048 40.8887 449.241 39.8861 450C38.8834 450.759 37.3794 455.565 37.63 456.83C37.8807 458.095 39.6354 467.961 38.8834 469.732C38.1314 471.503 42.6434 480.61 48.4089 479.851C54.1743 479.092 53.6729 474.033 53.6729 474.033L51.6676 466.191L50.9156 453.795C50.9156 453.795 44.3981 452.783 42.3928 454.048Z" fill="#2F2E41"/>
<path d="M52.6041 232.53C56.4091 232.53 59.4937 229.417 59.4937 225.577C59.4937 221.737 56.4091 218.624 52.6041 218.624C48.7991 218.624 45.7145 221.737 45.7145 225.577C45.7145 229.417 48.7991 232.53 52.6041 232.53Z" fill="#2F2E41"/>
<path d="M43.4179 221.81C43.4181 220.092 44.0488 218.434 45.1885 217.157C46.3282 215.88 47.8962 215.074 49.5899 214.895C49.3515 214.87 49.1119 214.857 48.8722 214.857C47.045 214.857 45.2926 215.59 44.0006 216.894C42.7085 218.198 41.9826 219.966 41.9826 221.81C41.9826 223.654 42.7085 225.423 44.0006 226.727C45.2926 228.031 47.045 228.763 48.8722 228.763C49.1119 228.763 49.3515 228.751 49.5899 228.726C47.8962 228.547 46.3282 227.741 45.1885 226.464C44.0488 225.187 43.418 223.529 43.4179 221.81Z" fill="#2F2E41"/>
<path d="M58.4356 261.532C64.2502 261.532 68.9638 256.775 68.9638 250.907C68.9638 245.038 64.2502 240.281 58.4356 240.281C52.6211 240.281 47.9075 245.038 47.9075 250.907C47.9075 256.775 52.6211 261.532 58.4356 261.532Z" fill="#A0616A"/>
<path d="M37.63 324.776C37.63 324.776 38.1314 337.425 40.1367 344.002C42.1421 350.58 49.3719 397.422 47.8679 400.964C46.3639 404.506 38.6327 443.675 40.3874 445.952C42.1421 448.229 50.4142 447.47 50.4142 447.47L61.6547 399.952C61.6547 399.952 59.4383 347.544 77.9879 346.279C96.5375 345.014 126.868 344.255 126.868 344.255C126.868 344.255 146.421 350.074 155.194 349.821C163.968 349.568 168.981 352.098 168.981 352.098L170.485 341.726L131.631 333.124C131.631 333.124 96.0361 320.728 76.4839 324.017C56.9316 327.306 37.63 324.776 37.63 324.776Z" fill="#2F2E41"/>
<path d="M51.6675 261.785C51.6675 261.785 48.6595 260.014 47.9075 261.785C47.1555 263.555 41.8914 265.073 39.8861 263.555C37.8807 262.038 32.8673 264.061 32.8673 264.061L27.3526 280.505C27.3526 280.505 30.1099 294.672 32.6166 302.514C35.1233 310.356 36.126 326.547 35.1233 328.065C34.1207 329.583 55.1769 335.654 65.4544 331.859C75.7318 328.065 77.9879 323.764 77.9879 323.764C77.9879 323.764 66.7077 307.574 70.4678 299.984C74.2278 292.395 71.2198 283.794 71.2198 283.794L72.7238 275.192L64.201 270.386C64.201 270.386 63.6997 265.832 61.6943 265.832C59.689 265.832 51.6675 261.785 51.6675 261.785Z" fill="#D0CDE1"/>
<path d="M68.9638 275.445H72.7238C73.7668 276.43 74.5442 277.667 74.9828 279.039C75.4213 280.411 75.5066 281.873 75.2305 283.288C74.2278 288.094 69.7058 304.03 69.7058 304.03L65.9557 294.166L68.9638 275.445Z" fill="#D0CDE1"/>
<path d="M79.7611 316.072C79.7611 316.072 87.2627 324.27 81.7479 328.571C76.2332 332.871 74.8743 318.705 74.8743 318.705L79.7611 316.072Z" fill="#A0616A"/>
<path d="M68.9638 298.972L70.7185 306.056L73.7265 311.621C73.7265 311.621 84.004 318.452 84.004 320.981C84.004 320.981 79.4919 315.163 73.7265 320.981L68.5878 308.459L68.9638 298.972Z" fill="#D0CDE1"/>
<path d="M60.3653 246.652C66.707 246.652 71.8479 243.539 71.8479 239.699C71.8479 235.859 66.707 232.746 60.3653 232.746C54.0236 232.746 48.8826 235.859 48.8826 239.699C48.8826 243.539 54.0236 246.652 60.3653 246.652Z" fill="#2F2E41"/>
<path d="M37.63 240.282C37.63 240.282 45.6515 235.728 48.9102 239.017C52.1689 242.305 39.1341 247.365 39.1341 247.365L37.63 240.282Z" fill="#A0616A"/>
<path d="M34.622 265.326L32.8673 264.061C32.8673 264.061 30.8619 261.026 29.1073 262.038C27.3526 263.049 17.0751 258.243 17.0751 258.243C17.0751 258.243 20.8352 260.014 20.8352 256.978C20.8352 253.942 21.3365 254.448 23.8432 254.448C26.3499 254.448 26.3499 255.713 27.3525 253.942C28.3552 252.171 27.8539 251.16 29.6086 252.171C31.3633 253.183 33.3686 252.424 33.87 251.665C34.3713 250.907 43.3955 249.642 43.3955 249.642C43.3955 249.642 39.8861 239.27 39.1341 238.511C38.382 237.752 19.0805 246.353 19.0805 246.353C19.0805 246.353 -5.23446 253.183 1.03229 261.026C7.29904 268.868 29.8593 280.758 29.8593 280.758L34.622 265.326Z" fill="#D0CDE1"/>
<path d="M410.521 369.722H306.071V508.118H410.521V369.722Z" fill="#C8DAD3"/>
<path d="M381.744 391.593H334.848V438.92H381.744V391.593Z" fill="#3F3D56"/>
<path d="M399.507 448.959H317.085V454.696H399.507V448.959Z" fill="#3F3D56"/>
<path d="M399.507 464.735H317.085V470.472H399.507V464.735Z" fill="#3F3D56"/>
<path d="M399.507 480.511H317.085V486.248H399.507V480.511Z" fill="#3F3D56"/>
<path d="M186.611 519.902C186.611 530.358 180.452 534.009 172.854 534.009C172.678 534.009 172.503 534.007 172.327 534.003C171.975 533.995 171.626 533.978 171.282 533.955C164.425 533.465 159.098 529.626 159.098 519.902C159.098 509.839 171.84 497.141 172.797 496.202L172.799 496.2C172.836 496.164 172.854 496.146 172.854 496.146C172.854 496.146 186.611 509.447 186.611 519.902Z" fill="#C8DAD3"/>
<path d="M172.353 532.409L177.384 525.314L172.341 533.188L172.327 534.003C171.975 533.995 171.626 533.978 171.282 533.955L171.824 523.494L171.82 523.413L171.829 523.398L171.88 522.41L166.824 514.516L171.896 521.669L171.908 521.878L172.318 513.975L167.989 505.818L172.371 512.588L172.797 496.202L172.799 496.146V496.2L172.728 509.121L177.037 503.999L172.71 510.234L172.596 517.311L176.62 510.519L172.579 518.352L172.516 522.286L178.358 512.834L172.494 523.659L172.353 532.409Z" fill="#3F3D56"/>
</svg>
