<svg width="100%" height="100%" viewBox="0 0 447 592" fill="none" xmlns="http://www.w3.org/2000/svg">
<path d="M266.806 17.3676V17.3676C288.833 105.617 221.477 191.039 130.521 190.866V190.866" stroke="#C8DAD3" stroke-width="3"/>
<path d="M118.345 203.862V203.862C141.096 217.075 146.461 247.596 129.578 267.775L128.789 268.718" stroke="#C8DAD3" stroke-width="3"/>
<path d="M160.145 295.649L168.62 293.291C196.697 285.479 221.044 314.135 208.799 340.582V340.582" stroke="#C8DAD3" stroke-width="3"/>
<path d="M82.0588 248.259L76.3247 238.486C64.0241 217.522 84.6844 192.658 107.546 200.912V200.912" stroke="#C8DAD3" stroke-width="3"/>
<path d="M197 396.038L193.368 395.44C149.422 388.199 127.066 338.506 150.799 300.818V300.818" stroke="#C8DAD3" stroke-width="3"/>
<path d="M200.123 246.427L198.935 248.547C176.71 288.203 121.819 293.677 92.201 259.191V259.191" stroke="#C8DAD3" stroke-width="3"/>
<path d="M127.162 51.9737L138.916 53.4268C220.556 63.5194 261.838 157.124 214.238 224.215V224.215" stroke="#C8DAD3" stroke-width="3"/>
<path d="M123.519 278L119.605 296.646C109.625 344.187 162.646 379.665 202.785 352.303V352.303" stroke="#C8DAD3" stroke-width="3"/>
<path d="M103.834 188.64L100.32 186.333C55.502 156.902 54.9485 91.3828 99.2627 61.1992V61.1992" stroke="#C8DAD3" stroke-width="3"/>
<path d="M255.183 408.146L255.496 406.679L255.183 408.146ZM372.694 536.157L374.182 535.97L372.694 536.157ZM378.282 589.185C378.936 589.693 379.878 589.574 380.386 588.92L388.669 578.26C389.177 577.606 389.059 576.663 388.405 576.155C387.751 575.647 386.808 575.765 386.3 576.419L378.938 585.895L369.462 578.533C368.807 578.025 367.865 578.143 367.357 578.797C366.849 579.451 366.967 580.394 367.621 580.902L378.282 589.185ZM210.687 400.18L254.87 409.613L255.496 406.679L211.313 397.246L210.687 400.18ZM371.206 536.344L377.714 588.187L380.69 587.813L374.182 535.97L371.206 536.344ZM254.87 409.613C316.66 422.806 363.336 473.653 371.206 536.344L374.182 535.97C366.154 472.013 318.535 420.139 255.496 406.679L254.87 409.613Z" fill="#C8DAD3"/>
</svg>
